<mxfile host="app.diagrams.net" agent="Mozilla/5.0 (Windows NT 10.0; Win64; x64; rv:128.0) Gecko/20100101 Firefox/128.0" version="26.0.6">
  <diagram name="Page-1" id="R2Hkj4xk6Px0tPUMzbgg">
    <mxGraphModel dx="3088" dy="766" grid="1" gridSize="10" guides="1" tooltips="1" connect="1" arrows="1" fold="1" page="1" pageScale="1" pageWidth="1654" pageHeight="1169" math="0" shadow="0">
      <root>
        <mxCell id="0" />
        <mxCell id="1" parent="0" />
        <mxCell id="r_eTFS24guqQPn7-Gpcn-38" value="&lt;font&gt;V2&lt;/font&gt;" style="rounded=0;html=1;fillColor=#d5e8d4;strokeColor=#82b366;align=left;verticalAlign=bottom;fontStyle=1;fontSize=16;fontColor=#00CC66;gradientColor=none;" parent="1" vertex="1">
          <mxGeometry x="90" y="640" width="1550" height="130" as="geometry" />
        </mxCell>
        <mxCell id="r_eTFS24guqQPn7-Gpcn-11" value="V1" style="rounded=0;html=1;fillColor=#fff2cc;strokeColor=#d6b656;align=left;verticalAlign=bottom;fontStyle=1;fontSize=16;fontColor=#FFB366;" parent="1" vertex="1">
          <mxGeometry x="90" y="350" width="1550" height="290" as="geometry" />
        </mxCell>
        <mxCell id="r_eTFS24guqQPn7-Gpcn-6" value="&lt;b&gt;&lt;font color=&quot;#ff3333&quot;&gt;MVP&lt;/font&gt;&lt;/b&gt;" style="rounded=0;whiteSpace=wrap;html=1;fillColor=#dae8fc;strokeColor=#6c8ebf;gradientColor=none;align=left;labelPosition=center;verticalLabelPosition=middle;verticalAlign=bottom;fontSize=16;labelBackgroundColor=none;" parent="1" vertex="1">
          <mxGeometry x="90" y="120" width="1550" height="230" as="geometry" />
        </mxCell>
        <mxCell id="r_eTFS24guqQPn7-Gpcn-1" value="API COBRA" style="rounded=1;whiteSpace=wrap;html=1;fontSize=16;fontStyle=1" parent="1" vertex="1">
          <mxGeometry x="220" y="140" width="330" height="60" as="geometry" />
        </mxCell>
        <mxCell id="r_eTFS24guqQPn7-Gpcn-2" value="&lt;font&gt;COBRA&lt;/font&gt;&lt;div&gt;&lt;font&gt;Codification Basée sur des Règles Automatisée&lt;/font&gt;&lt;/div&gt;" style="text;html=1;align=center;verticalAlign=middle;whiteSpace=wrap;rounded=0;fontSize=30;fontStyle=1" parent="1" vertex="1">
          <mxGeometry x="380" y="20" width="838" height="60" as="geometry" />
        </mxCell>
        <mxCell id="r_eTFS24guqQPn7-Gpcn-3" value="Fichiers Règles" style="rounded=1;whiteSpace=wrap;html=1;fontSize=16;fontStyle=1" parent="1" vertex="1">
          <mxGeometry x="620" y="140" width="330" height="60" as="geometry" />
        </mxCell>
        <mxCell id="r_eTFS24guqQPn7-Gpcn-4" value="Codification" style="rounded=1;whiteSpace=wrap;html=1;fontSize=16;fontStyle=1" parent="1" vertex="1">
          <mxGeometry x="1300" y="140" width="320" height="60" as="geometry" />
        </mxCell>
        <mxCell id="r_eTFS24guqQPn7-Gpcn-7" value="Déterminer url" style="rounded=1;whiteSpace=wrap;html=1;fontSize=11;" parent="1" vertex="1">
          <mxGeometry x="225" y="215" width="90" height="40" as="geometry" />
        </mxCell>
        <mxCell id="r_eTFS24guqQPn7-Gpcn-8" value="Déploiement sur Kube Dev" style="rounded=1;whiteSpace=wrap;html=1;fontSize=11;" parent="1" vertex="1">
          <mxGeometry x="440" y="215" width="90" height="40" as="geometry" />
        </mxCell>
        <mxCell id="r_eTFS24guqQPn7-Gpcn-9" value="Gestion flux" style="rounded=1;whiteSpace=wrap;html=1;fontSize=11;" parent="1" vertex="1">
          <mxGeometry x="410" y="440" width="95" height="40" as="geometry" />
        </mxCell>
        <mxCell id="r_eTFS24guqQPn7-Gpcn-10" value="Authentification" style="rounded=1;whiteSpace=wrap;html=1;fontSize=11;" parent="1" vertex="1">
          <mxGeometry x="300" y="660" width="90" height="40" as="geometry" />
        </mxCell>
        <mxCell id="r_eTFS24guqQPn7-Gpcn-12" value="Fichier de règles&lt;div&gt;PCS&lt;/div&gt;" style="rounded=1;whiteSpace=wrap;html=1;fontSize=11;" parent="1" vertex="1">
          <mxGeometry x="660" y="220" width="90" height="40" as="geometry" />
        </mxCell>
        <mxCell id="r_eTFS24guqQPn7-Gpcn-13" value="Fichier de règles&lt;div&gt;ISCO&lt;/div&gt;" style="rounded=1;whiteSpace=wrap;html=1;fontSize=11;" parent="1" vertex="1">
          <mxGeometry x="840" y="220" width="90" height="40" as="geometry" />
        </mxCell>
        <mxCell id="r_eTFS24guqQPn7-Gpcn-14" value="Fichier de règles&lt;div&gt;NAF&lt;/div&gt;" style="rounded=1;whiteSpace=wrap;html=1;fontSize=11;" parent="1" vertex="1">
          <mxGeometry x="622" y="400" width="90" height="40" as="geometry" />
        </mxCell>
        <mxCell id="r_eTFS24guqQPn7-Gpcn-15" value="Fichier de règles&lt;div&gt;Diplômes&lt;/div&gt;" style="rounded=1;whiteSpace=wrap;html=1;fontSize=11;" parent="1" vertex="1">
          <mxGeometry x="660" y="275" width="90" height="40" as="geometry" />
        </mxCell>
        <mxCell id="r_eTFS24guqQPn7-Gpcn-16" value="Fichier de règles&lt;div&gt;Niveaux&lt;/div&gt;" style="rounded=1;whiteSpace=wrap;html=1;fontSize=11;" parent="1" vertex="1">
          <mxGeometry x="840" y="275" width="90" height="40" as="geometry" />
        </mxCell>
        <mxCell id="r_eTFS24guqQPn7-Gpcn-17" value="Fichier de règles&lt;div&gt;Communes&lt;/div&gt;" style="rounded=1;whiteSpace=wrap;html=1;fontSize=11;" parent="1" vertex="1">
          <mxGeometry x="737" y="400" width="90" height="40" as="geometry" />
        </mxCell>
        <mxCell id="r_eTFS24guqQPn7-Gpcn-18" value="Fichier de règles&lt;div&gt;Pays&lt;/div&gt;" style="rounded=1;whiteSpace=wrap;html=1;fontSize=11;" parent="1" vertex="1">
          <mxGeometry x="730" y="460" width="90" height="40" as="geometry" />
        </mxCell>
        <mxCell id="r_eTFS24guqQPn7-Gpcn-19" value="Fichier de règles&lt;div&gt;Nationalités&lt;/div&gt;" style="rounded=1;whiteSpace=wrap;html=1;fontSize=11;" parent="1" vertex="1">
          <mxGeometry x="827" y="460" width="90" height="40" as="geometry" />
        </mxCell>
        <mxCell id="r_eTFS24guqQPn7-Gpcn-20" value="Fichier de règles&lt;div&gt;Départements&lt;/div&gt;" style="rounded=1;whiteSpace=wrap;html=1;fontSize=11;" parent="1" vertex="1">
          <mxGeometry x="622" y="460" width="90" height="40" as="geometry" />
        </mxCell>
        <mxCell id="r_eTFS24guqQPn7-Gpcn-21" value="Fichier de règles&lt;div&gt;Activités (EDT)&lt;/div&gt;" style="rounded=1;whiteSpace=wrap;html=1;fontSize=11;" parent="1" vertex="1">
          <mxGeometry x="622" y="515" width="90" height="40" as="geometry" />
        </mxCell>
        <mxCell id="r_eTFS24guqQPn7-Gpcn-22" value="Stockage des fichiers de règles&amp;nbsp;" style="rounded=1;whiteSpace=wrap;html=1;fontSize=11;" parent="1" vertex="1">
          <mxGeometry x="1140" y="220" width="100" height="40" as="geometry" />
        </mxCell>
        <mxCell id="r_eTFS24guqQPn7-Gpcn-23" value="Gestion des millésimes (N-1 et N-2)" style="rounded=1;whiteSpace=wrap;html=1;fontSize=11;" parent="1" vertex="1">
          <mxGeometry x="1170" y="380" width="100" height="40" as="geometry" />
        </mxCell>
        <mxCell id="r_eTFS24guqQPn7-Gpcn-25" value="Lecture fichier de règles connus" style="rounded=1;whiteSpace=wrap;html=1;fontSize=11;" parent="1" vertex="1">
          <mxGeometry x="1410" y="220" width="100" height="40" as="geometry" />
        </mxCell>
        <mxCell id="r_eTFS24guqQPn7-Gpcn-26" value="Preprocessing (normalisation libellés)" style="rounded=1;whiteSpace=wrap;html=1;fontSize=11;" parent="1" vertex="1">
          <mxGeometry x="1300" y="270" width="100" height="50" as="geometry" />
        </mxCell>
        <mxCell id="r_eTFS24guqQPn7-Gpcn-27" value="Jointure" style="rounded=1;whiteSpace=wrap;html=1;fontSize=11;" parent="1" vertex="1">
          <mxGeometry x="1520" y="215" width="100" height="50" as="geometry" />
        </mxCell>
        <mxCell id="r_eTFS24guqQPn7-Gpcn-28" value="Type de codage&lt;div&gt;(réussite, partielle, incohérent, échec)&lt;/div&gt;" style="rounded=1;whiteSpace=wrap;html=1;fontSize=11;" parent="1" vertex="1">
          <mxGeometry x="1410" y="265" width="100" height="60" as="geometry" />
        </mxCell>
        <mxCell id="r_eTFS24guqQPn7-Gpcn-30" value="Lecture inputs" style="rounded=1;whiteSpace=wrap;html=1;fontSize=11;" parent="1" vertex="1">
          <mxGeometry x="1300" y="220" width="100" height="40" as="geometry" />
        </mxCell>
        <mxCell id="r_eTFS24guqQPn7-Gpcn-32" value="Gestion logs" style="rounded=1;whiteSpace=wrap;html=1;fontSize=11;" parent="1" vertex="1">
          <mxGeometry x="415" y="500" width="90" height="40" as="geometry" />
        </mxCell>
        <mxCell id="r_eTFS24guqQPn7-Gpcn-33" value="Ajout d&#39;un fichier de règles&amp;nbsp;" style="rounded=1;whiteSpace=wrap;html=1;fontSize=11;" parent="1" vertex="1">
          <mxGeometry x="1010" y="220" width="100" height="40" as="geometry" />
        </mxCell>
        <mxCell id="r_eTFS24guqQPn7-Gpcn-34" value="MAJ d&#39;un fichier de règles&amp;nbsp;" style="rounded=1;whiteSpace=wrap;html=1;fontSize=11;" parent="1" vertex="1">
          <mxGeometry x="1025.5" y="380" width="100" height="40" as="geometry" />
        </mxCell>
        <mxCell id="r_eTFS24guqQPn7-Gpcn-36" value="Lecture fichier de règles fourni en input" style="rounded=1;whiteSpace=wrap;html=1;fontSize=11;" parent="1" vertex="1">
          <mxGeometry x="1400" y="370" width="100" height="60" as="geometry" />
        </mxCell>
        <mxCell id="r_eTFS24guqQPn7-Gpcn-37" value="Lecture fichier de règles millésimes N-1 ou N-2" style="rounded=1;whiteSpace=wrap;html=1;fontSize=11;" parent="1" vertex="1">
          <mxGeometry x="1520" y="450" width="100" height="60" as="geometry" />
        </mxCell>
        <mxCell id="r_eTFS24guqQPn7-Gpcn-39" value="Amélioration Preprocessing" style="rounded=1;whiteSpace=wrap;html=1;fontSize=11;" parent="1" vertex="1">
          <mxGeometry x="1410" y="670" width="100" height="60" as="geometry" />
        </mxCell>
        <mxCell id="r_eTFS24guqQPn7-Gpcn-41" value="Méthode de requêtage" style="rounded=1;whiteSpace=wrap;html=1;fontSize=11;" parent="1" vertex="1">
          <mxGeometry x="330" y="215" width="90" height="40" as="geometry" />
        </mxCell>
        <mxCell id="gnnbxIwtvQgDtQFgPyVN-2" value="" style="endArrow=none;dashed=1;html=1;rounded=0;exitX=0.03;exitY=1.002;exitDx=0;exitDy=0;exitPerimeter=0;strokeColor=#FF3333;flowAnimation=0;fontColor=#FF3333;" parent="1" edge="1">
          <mxGeometry width="50" height="50" relative="1" as="geometry">
            <mxPoint x="126.50000000000023" y="349.76" as="sourcePoint" />
            <mxPoint x="-10" y="349" as="targetPoint" />
          </mxGeometry>
        </mxCell>
        <mxCell id="gnnbxIwtvQgDtQFgPyVN-3" value="28/02/2025" style="edgeLabel;html=1;align=center;verticalAlign=middle;resizable=0;points=[];fontColor=#FF3333;fontStyle=1" parent="gnnbxIwtvQgDtQFgPyVN-2" vertex="1" connectable="0">
          <mxGeometry x="0.758" y="-3" relative="1" as="geometry">
            <mxPoint x="33" y="-6" as="offset" />
          </mxGeometry>
        </mxCell>
        <mxCell id="gnnbxIwtvQgDtQFgPyVN-4" value="Déploiement sur Kube Prod" style="rounded=1;whiteSpace=wrap;html=1;fontSize=11;" parent="1" vertex="1">
          <mxGeometry x="220" y="500" width="100" height="40" as="geometry" />
        </mxCell>
        <mxCell id="gnnbxIwtvQgDtQFgPyVN-5" value="Déploiement sur Kube DMZ" style="rounded=1;whiteSpace=wrap;html=1;fontSize=11;" parent="1" vertex="1">
          <mxGeometry x="300" y="720" width="90" height="40" as="geometry" />
        </mxCell>
        <mxCell id="gnnbxIwtvQgDtQFgPyVN-6" value="Contrôle des fichiers de règles&amp;nbsp;" style="rounded=1;whiteSpace=wrap;html=1;fontSize=11;" parent="1" vertex="1">
          <mxGeometry x="1025.5" y="460" width="100" height="40" as="geometry" />
        </mxCell>
        <mxCell id="JKGv0fzRRPDC3mZNfKde-1" value="Passage à RMéS pour stockage des fichiers de règles" style="rounded=1;whiteSpace=wrap;html=1;fontSize=11;" parent="1" vertex="1">
          <mxGeometry x="1020" y="670" width="111" height="50" as="geometry" />
        </mxCell>
        <mxCell id="obznzCxM3CNH466dwY7s-1" value="Tests de charge" style="rounded=1;whiteSpace=wrap;html=1;fontSize=11;" parent="1" vertex="1">
          <mxGeometry x="220" y="380" width="100" height="40" as="geometry" />
        </mxCell>
        <mxCell id="obznzCxM3CNH466dwY7s-2" value="Gestion erreurs" style="rounded=1;whiteSpace=wrap;html=1;fontSize=11;" parent="1" vertex="1">
          <mxGeometry x="220" y="265" width="90" height="40" as="geometry" />
        </mxCell>
        <mxCell id="obznzCxM3CNH466dwY7s-3" value="Contrat interface" style="rounded=1;whiteSpace=wrap;html=1;fontSize=11;" parent="1" vertex="1">
          <mxGeometry x="410" y="380" width="90" height="40" as="geometry" />
        </mxCell>
        <mxCell id="obznzCxM3CNH466dwY7s-4" value="API de gestion des fichiers de règles" style="rounded=1;whiteSpace=wrap;html=1;fontSize=11;" parent="1" vertex="1">
          <mxGeometry x="620" y="680" width="111" height="50" as="geometry" />
        </mxCell>
        <mxCell id="Z17eQrGS6fgMhu_aKMDi-1" value="Gestion Fichiers Règles" style="rounded=1;whiteSpace=wrap;html=1;fontSize=16;fontStyle=1" parent="1" vertex="1">
          <mxGeometry x="1010" y="140" width="250" height="60" as="geometry" />
        </mxCell>
        <mxCell id="Z17eQrGS6fgMhu_aKMDi-2" value="" style="endArrow=none;dashed=1;html=1;rounded=0;exitX=0.03;exitY=1.002;exitDx=0;exitDy=0;exitPerimeter=0;strokeColor=#FF9933;flowAnimation=0;fontColor=#FF3333;" parent="1" edge="1">
          <mxGeometry width="50" height="50" relative="1" as="geometry">
            <mxPoint x="126.50000000000023" y="639.76" as="sourcePoint" />
            <mxPoint x="-10" y="639" as="targetPoint" />
          </mxGeometry>
        </mxCell>
        <mxCell id="Z17eQrGS6fgMhu_aKMDi-3" value="30/08/2025" style="edgeLabel;html=1;align=center;verticalAlign=middle;resizable=0;points=[];fontColor=#FF9933;fontStyle=1" parent="Z17eQrGS6fgMhu_aKMDi-2" vertex="1" connectable="0">
          <mxGeometry x="0.758" y="-3" relative="1" as="geometry">
            <mxPoint x="33" y="-6" as="offset" />
          </mxGeometry>
        </mxCell>
        <mxCell id="ktS3rT4cSJpwm1nnvyJa-1" value="" style="endArrow=none;dashed=1;html=1;rounded=0;exitX=0.03;exitY=1.002;exitDx=0;exitDy=0;exitPerimeter=0;strokeColor=#82b366;flowAnimation=0;fontColor=#66CC00;fillColor=#d5e8d4;" parent="1" edge="1">
          <mxGeometry width="50" height="50" relative="1" as="geometry">
            <mxPoint x="126.50000000000023" y="770.76" as="sourcePoint" />
            <mxPoint x="-10" y="770" as="targetPoint" />
          </mxGeometry>
        </mxCell>
        <mxCell id="ktS3rT4cSJpwm1nnvyJa-2" value="31/12/2025" style="edgeLabel;html=1;align=center;verticalAlign=middle;resizable=0;points=[];fontColor=#66CC00;fontStyle=1" parent="ktS3rT4cSJpwm1nnvyJa-1" vertex="1" connectable="0">
          <mxGeometry x="0.758" y="-3" relative="1" as="geometry">
            <mxPoint x="33" y="-6" as="offset" />
          </mxGeometry>
        </mxCell>
        <mxCell id="kYvPHMqoJjB4PSUVNaYb-1" value="" style="verticalLabelPosition=bottom;verticalAlign=top;html=1;shape=mxgraph.basic.tick;fillColor=#d5e8d4;strokeColor=#82b366;" parent="1" vertex="1">
          <mxGeometry x="295" y="235" width="20" height="20" as="geometry" />
        </mxCell>
      </root>
    </mxGraphModel>
  </diagram>
</mxfile>
